<svg xmlns="http://www.w3.org/2000/svg" xmlns:xlink="http://www.w3.org/1999/xlink" width="500" zoomAndPan="magnify" viewBox="0 0 375 374.999991" height="500" preserveAspectRatio="xMidYMid meet" version="1.0"><defs><g/><clipPath id="88f7ad3bf9"><path d="M 52 144 L 116 144 L 116 214 L 52 214 Z M 52 144 " clip-rule="nonzero"/></clipPath><clipPath id="07779fe74d"><path d="M 52.816406 144.707031 L 115.816406 144.6875 L 115.839844 213.6875 L 52.839844 213.707031 Z M 52.816406 144.707031 " clip-rule="nonzero"/></clipPath><clipPath id="7b8a7d406b"><path d="M 52.703125 144.707031 L 117.203125 144.6875 L 117.222656 213.6875 L 52.722656 213.707031 Z M 52.703125 144.707031 " clip-rule="nonzero"/></clipPath><clipPath id="6bc7ff794f"><path d="M 49.691406 144.707031 L 118.691406 144.6875 L 118.710938 213.6875 L 49.710938 213.707031 Z M 49.691406 144.707031 " clip-rule="nonzero"/></clipPath></defs><g clip-path="url(#88f7ad3bf9)"><g clip-path="url(#07779fe74d)"><g clip-path="url(#7b8a7d406b)"><g clip-path="url(#6bc7ff794f)"><path fill="#ffffff" d="M 49.691406 144.707031 L 118.691406 144.6875 L 118.710938 213.6875 L 49.710938 213.707031 Z M 49.691406 144.707031 " fill-opacity="1" fill-rule="nonzero"/></g></g></g></g><g fill="#ff0000" fill-opacity="1"><g transform="translate(78.749999, 203.383787)"><g><path d="M 31.125 -48.265625 L 31.125 -38.609375 L 14.515625 -38.609375 L 14.515625 -29.015625 L 30.421875 -29.015625 L 30.421875 -19.359375 L 14.515625 -19.359375 L 14.515625 -9.65625 L 31.125 -9.65625 L 31.125 0 L 3.515625 0 L 3.515625 -48.265625 Z M 31.125 -48.265625 "/></g></g></g><g fill="#ff0000" fill-opacity="1"><g transform="translate(112.680024, 203.383787)"><g><path d="M 11.109375 -30.015625 L 18.421875 -13.6875 L 25.734375 -30.015625 L 38.03125 -30.015625 L 21.9375 0 L 14.921875 0 L -1.171875 -30.015625 Z M 11.109375 -30.015625 "/></g></g></g><g fill="#ff0000" fill-opacity="1"><g transform="translate(149.535055, 203.383787)"><g><path d="M 33.875 -13.578125 L 12.109375 -13.578125 C 12.109375 -11.460938 12.789062 -9.898438 14.15625 -8.890625 C 15.519531 -7.878906 17.003906 -7.375 18.609375 -7.375 C 20.285156 -7.375 21.609375 -7.597656 22.578125 -8.046875 C 23.554688 -8.492188 24.671875 -9.378906 25.921875 -10.703125 L 33.40625 -6.96875 C 30.28125 -1.738281 25.09375 0.875 17.84375 0.875 C 13.320312 0.875 9.441406 -0.671875 6.203125 -3.765625 C 2.960938 -6.867188 1.34375 -10.601562 1.34375 -14.96875 C 1.34375 -19.34375 2.960938 -23.085938 6.203125 -26.203125 C 9.441406 -29.328125 13.320312 -30.890625 17.84375 -30.890625 C 22.601562 -30.890625 26.472656 -29.515625 29.453125 -26.765625 C 32.441406 -24.015625 33.9375 -20.082031 33.9375 -14.96875 C 33.9375 -14.269531 33.914062 -13.804688 33.875 -13.578125 Z M 12.40625 -19.3125 L 23.8125 -19.3125 C 23.570312 -20.863281 22.953125 -22.054688 21.953125 -22.890625 C 20.960938 -23.734375 19.691406 -24.15625 18.140625 -24.15625 C 16.421875 -24.15625 15.050781 -23.707031 14.03125 -22.8125 C 13.019531 -21.914062 12.476562 -20.75 12.40625 -19.3125 Z M 12.40625 -19.3125 "/></g></g></g><g fill="#ff0000" fill-opacity="1"><g transform="translate(184.810585, 203.383787)"><g><path d="M 3.515625 0 L 3.515625 -30.015625 L 13.859375 -30.015625 L 13.859375 -26.84375 L 13.984375 -26.84375 C 16.671875 -29.539062 19.535156 -30.890625 22.578125 -30.890625 C 24.054688 -30.890625 25.523438 -30.691406 26.984375 -30.296875 C 28.453125 -29.910156 29.859375 -29.304688 31.203125 -28.484375 C 32.554688 -27.671875 33.648438 -26.507812 34.484375 -25 C 35.328125 -23.5 35.75 -21.753906 35.75 -19.765625 L 35.75 0 L 25.390625 0 L 25.390625 -16.96875 C 25.390625 -18.53125 24.890625 -19.894531 23.890625 -21.0625 C 22.898438 -22.226562 21.601562 -22.8125 20 -22.8125 C 18.445312 -22.8125 17.035156 -22.207031 15.765625 -21 C 14.492188 -19.789062 13.859375 -18.445312 13.859375 -16.96875 L 13.859375 0 Z M 3.515625 0 "/></g></g></g><g fill="#ff0000" fill-opacity="1"><g transform="translate(223.479115, 203.383787)"><g><path d="M 5.265625 -30.015625 L 5.265625 -41.1875 L 15.625 -41.1875 L 15.625 -30.015625 L 21.9375 -30.015625 L 21.9375 -22.109375 L 15.625 -22.109375 L 15.625 -12.578125 C 15.625 -9.804688 16.398438 -8.421875 17.953125 -8.421875 C 18.347656 -8.421875 18.757812 -8.5 19.1875 -8.65625 C 19.613281 -8.8125 19.945312 -8.96875 20.1875 -9.125 L 20.53125 -9.359375 L 23.109375 -1 C 20.878906 0.25 18.34375 0.875 15.5 0.875 C 13.550781 0.875 11.875 0.535156 10.46875 -0.140625 C 9.0625 -0.828125 8 -1.742188 7.28125 -2.890625 C 6.5625 -4.046875 6.046875 -5.253906 5.734375 -6.515625 C 5.421875 -7.785156 5.265625 -9.144531 5.265625 -10.59375 L 5.265625 -22.109375 L 0.9375 -22.109375 L 0.9375 -30.015625 Z M 5.265625 -30.015625 "/></g></g></g><g fill="#ff0000" fill-opacity="1"><g transform="translate(246.586635, 203.383787)"><g><path d="M 10.171875 -12.515625 C 12.046875 -12.515625 13.632812 -11.859375 14.9375 -10.546875 C 16.25 -9.242188 16.90625 -7.660156 16.90625 -5.796875 C 16.90625 -3.960938 16.25 -2.390625 14.9375 -1.078125 C 13.632812 0.222656 12.046875 0.875 10.171875 0.875 C 8.335938 0.875 6.769531 0.222656 5.46875 -1.078125 C 4.164062 -2.390625 3.515625 -3.960938 3.515625 -5.796875 C 3.515625 -7.660156 4.164062 -9.242188 5.46875 -10.546875 C 6.769531 -11.859375 8.335938 -12.515625 10.171875 -12.515625 Z M 10.171875 -12.515625 "/></g></g></g><g fill="#ff0000" fill-opacity="1"><g transform="translate(142.879962, 225.269839)"><g><path d="M 6.078125 -6.90625 L 3.53125 -6.90625 L 3.53125 0 L 2.65625 0 L 2.65625 -6.90625 L 0.125 -6.90625 L 0.125 -7.765625 L 6.078125 -7.765625 Z M 6.078125 -6.90625 "/></g></g></g><g fill="#ff0000" fill-opacity="1"><g transform="translate(149.072497, 225.269839)"><g><path d="M 7.625 0 L 6.75 0 L 6.75 -3.421875 L 2.0625 -3.421875 L 2.0625 0 L 1.171875 0 L 1.171875 -7.765625 L 2.0625 -7.765625 L 2.0625 -4.265625 L 6.75 -4.265625 L 6.75 -7.765625 L 7.625 -7.765625 Z M 7.625 0 "/></g></g></g><g fill="#ff0000" fill-opacity="1"><g transform="translate(157.884092, 225.269839)"><g><path d="M 6.453125 -6.90625 L 2.0625 -6.90625 L 2.0625 -4.359375 L 5.984375 -4.359375 L 5.984375 -3.5 L 2.0625 -3.5 L 2.0625 -0.84375 L 6.59375 -0.84375 L 6.59375 0 L 1.171875 0 L 1.171875 -7.765625 L 6.453125 -7.765625 Z M 6.453125 -6.90625 "/></g></g></g><g fill="#ff0000" fill-opacity="1"><g transform="translate(165.108713, 225.269839)"><g/></g></g><g fill="#ff0000" fill-opacity="1"><g transform="translate(168.149488, 225.269839)"><g><path d="M 6.09375 -1.96875 L 1.859375 -1.96875 L 0.984375 0 L 0.046875 0 L 3.53125 -7.765625 L 4.453125 -7.765625 L 7.921875 0 L 6.953125 0 Z M 5.71875 -2.8125 L 3.953125 -6.75 L 2.234375 -2.8125 Z M 5.71875 -2.8125 "/></g></g></g><g fill="#ff0000" fill-opacity="1"><g transform="translate(176.117654, 225.269839)"><g><path d="M 1.171875 -7.765625 L 4.09375 -7.765625 C 5.050781 -7.765625 5.796875 -7.535156 6.328125 -7.078125 C 6.859375 -6.628906 7.125 -5.988281 7.125 -5.15625 C 7.125 -4.300781 6.859375 -3.632812 6.328125 -3.15625 C 5.796875 -2.6875 5.050781 -2.453125 4.09375 -2.453125 L 2.0625 -2.453125 L 2.0625 0 L 1.171875 0 Z M 2.0625 -6.90625 L 2.0625 -3.3125 L 4.0625 -3.3125 C 4.769531 -3.3125 5.3125 -3.460938 5.6875 -3.765625 C 6.070312 -4.078125 6.265625 -4.535156 6.265625 -5.140625 C 6.265625 -5.722656 6.070312 -6.160156 5.6875 -6.453125 C 5.3125 -6.753906 4.769531 -6.90625 4.0625 -6.90625 Z M 2.0625 -6.90625 "/></g></g></g><g fill="#ff0000" fill-opacity="1"><g transform="translate(183.542031, 225.269839)"><g><path d="M 1.171875 -7.765625 L 4.09375 -7.765625 C 5.050781 -7.765625 5.796875 -7.535156 6.328125 -7.078125 C 6.859375 -6.628906 7.125 -5.988281 7.125 -5.15625 C 7.125 -4.300781 6.859375 -3.632812 6.328125 -3.15625 C 5.796875 -2.6875 5.050781 -2.453125 4.09375 -2.453125 L 2.0625 -2.453125 L 2.0625 0 L 1.171875 0 Z M 2.0625 -6.90625 L 2.0625 -3.3125 L 4.0625 -3.3125 C 4.769531 -3.3125 5.3125 -3.460938 5.6875 -3.765625 C 6.070312 -4.078125 6.265625 -4.535156 6.265625 -5.140625 C 6.265625 -5.722656 6.070312 -6.160156 5.6875 -6.453125 C 5.3125 -6.753906 4.769531 -6.90625 4.0625 -6.90625 Z M 2.0625 -6.90625 "/></g></g></g><g fill="#ff0000" fill-opacity="1"><g transform="translate(190.966408, 225.269839)"><g><path d="M 2.0625 -0.84375 L 5.46875 -0.84375 L 5.46875 0 L 1.171875 0 L 1.171875 -7.765625 L 2.0625 -7.765625 Z M 2.0625 -0.84375 "/></g></g></g><g fill="#ff0000" fill-opacity="1"><g transform="translate(196.703937, 225.269839)"><g><path d="M 2.0625 0 L 1.171875 0 L 1.171875 -7.765625 L 2.0625 -7.765625 Z M 2.0625 0 "/></g></g></g><g fill="#ff0000" fill-opacity="1"><g transform="translate(199.944469, 225.269839)"><g><path d="M 4.5 -7.78125 C 5.019531 -7.78125 5.523438 -7.679688 6.015625 -7.484375 C 6.515625 -7.285156 6.953125 -7.007812 7.328125 -6.65625 L 6.796875 -5.984375 C 6.160156 -6.628906 5.394531 -6.953125 4.5 -6.953125 C 3.625 -6.953125 2.878906 -6.65625 2.265625 -6.0625 C 1.648438 -5.46875 1.34375 -4.742188 1.34375 -3.890625 C 1.34375 -3.046875 1.648438 -2.320312 2.265625 -1.71875 C 2.878906 -1.125 3.625 -0.828125 4.5 -0.828125 C 5.375 -0.828125 6.140625 -1.140625 6.796875 -1.765625 L 7.34375 -1.15625 C 6.488281 -0.351562 5.523438 0.046875 4.453125 0.046875 C 3.335938 0.046875 2.390625 -0.332031 1.609375 -1.09375 C 0.828125 -1.851562 0.4375 -2.785156 0.4375 -3.890625 C 0.4375 -4.984375 0.832031 -5.90625 1.625 -6.65625 C 2.414062 -7.40625 3.375 -7.78125 4.5 -7.78125 Z M 4.5 -7.78125 "/></g></g></g><g fill="#ff0000" fill-opacity="1"><g transform="translate(207.712878, 225.269839)"><g><path d="M 6.09375 -1.96875 L 1.859375 -1.96875 L 0.984375 0 L 0.046875 0 L 3.53125 -7.765625 L 4.453125 -7.765625 L 7.921875 0 L 6.953125 0 Z M 5.71875 -2.8125 L 3.953125 -6.75 L 2.234375 -2.8125 Z M 5.71875 -2.8125 "/></g></g></g><g fill="#ff0000" fill-opacity="1"><g transform="translate(215.681044, 225.269839)"><g><path d="M 6.078125 -6.90625 L 3.53125 -6.90625 L 3.53125 0 L 2.65625 0 L 2.65625 -6.90625 L 0.125 -6.90625 L 0.125 -7.765625 L 6.078125 -7.765625 Z M 6.078125 -6.90625 "/></g></g></g><g fill="#ff0000" fill-opacity="1"><g transform="translate(221.873579, 225.269839)"><g><path d="M 2.0625 0 L 1.171875 0 L 1.171875 -7.765625 L 2.0625 -7.765625 Z M 2.0625 0 "/></g></g></g><g fill="#ff0000" fill-opacity="1"><g transform="translate(225.11411, 225.269839)"><g><path d="M 4.515625 -7.78125 C 5.648438 -7.78125 6.609375 -7.40625 7.390625 -6.65625 C 8.179688 -5.90625 8.578125 -4.976562 8.578125 -3.875 C 8.578125 -2.78125 8.179688 -1.851562 7.390625 -1.09375 C 6.609375 -0.332031 5.648438 0.046875 4.515625 0.046875 C 3.378906 0.046875 2.414062 -0.332031 1.625 -1.09375 C 0.832031 -1.851562 0.4375 -2.78125 0.4375 -3.875 C 0.4375 -4.976562 0.832031 -5.90625 1.625 -6.65625 C 2.414062 -7.40625 3.378906 -7.78125 4.515625 -7.78125 Z M 4.515625 -6.9375 C 3.640625 -6.9375 2.890625 -6.640625 2.265625 -6.046875 C 1.648438 -5.453125 1.34375 -4.726562 1.34375 -3.875 C 1.34375 -3.03125 1.648438 -2.304688 2.265625 -1.703125 C 2.890625 -1.109375 3.640625 -0.8125 4.515625 -0.8125 C 5.378906 -0.8125 6.117188 -1.109375 6.734375 -1.703125 C 7.359375 -2.304688 7.671875 -3.03125 7.671875 -3.875 C 7.671875 -4.726562 7.359375 -5.453125 6.734375 -6.046875 C 6.117188 -6.640625 5.378906 -6.9375 4.515625 -6.9375 Z M 4.515625 -6.9375 "/></g></g></g><g fill="#ff0000" fill-opacity="1"><g transform="translate(234.136563, 225.269839)"><g><path d="M 7.625 0 L 6.71875 0 L 2.0625 -6.234375 L 2.0625 0 L 1.171875 0 L 1.171875 -7.765625 L 2.09375 -7.765625 L 6.75 -1.515625 L 6.75 -7.765625 L 7.625 -7.765625 Z M 7.625 0 "/></g></g></g><g fill="#ff0000" fill-opacity="1"><g transform="translate(242.959259, 225.269839)"><g/></g></g><g fill="#ff0000" fill-opacity="1"><g transform="translate(246.000034, 225.269839)"><g><path d="M 4.515625 -7.78125 C 5.648438 -7.78125 6.609375 -7.40625 7.390625 -6.65625 C 8.179688 -5.90625 8.578125 -4.976562 8.578125 -3.875 C 8.578125 -2.78125 8.179688 -1.851562 7.390625 -1.09375 C 6.609375 -0.332031 5.648438 0.046875 4.515625 0.046875 C 3.378906 0.046875 2.414062 -0.332031 1.625 -1.09375 C 0.832031 -1.851562 0.4375 -2.78125 0.4375 -3.875 C 0.4375 -4.976562 0.832031 -5.90625 1.625 -6.65625 C 2.414062 -7.40625 3.378906 -7.78125 4.515625 -7.78125 Z M 4.515625 -6.9375 C 3.640625 -6.9375 2.890625 -6.640625 2.265625 -6.046875 C 1.648438 -5.453125 1.34375 -4.726562 1.34375 -3.875 C 1.34375 -3.03125 1.648438 -2.304688 2.265625 -1.703125 C 2.890625 -1.109375 3.640625 -0.8125 4.515625 -0.8125 C 5.378906 -0.8125 6.117188 -1.109375 6.734375 -1.703125 C 7.359375 -2.304688 7.671875 -3.03125 7.671875 -3.875 C 7.671875 -4.726562 7.359375 -5.453125 6.734375 -6.046875 C 6.117188 -6.640625 5.378906 -6.9375 4.515625 -6.9375 Z M 4.515625 -6.9375 "/></g></g></g><g fill="#ff0000" fill-opacity="1"><g transform="translate(255.022487, 225.269839)"><g><path d="M 6.109375 -6.90625 L 2.0625 -6.90625 L 2.0625 -4.1875 L 5.6875 -4.1875 L 5.6875 -3.328125 L 2.0625 -3.328125 L 2.0625 0 L 1.171875 0 L 1.171875 -7.765625 L 6.109375 -7.765625 Z M 6.109375 -6.90625 "/></g></g></g><g fill="#ff0000" fill-opacity="1"><g transform="translate(261.270503, 225.269839)"><g/></g></g><g fill="#ff0000" fill-opacity="1"><g transform="translate(264.311278, 225.269839)"><g><path d="M 6.453125 -6.90625 L 2.0625 -6.90625 L 2.0625 -4.359375 L 5.984375 -4.359375 L 5.984375 -3.5 L 2.0625 -3.5 L 2.0625 -0.84375 L 6.59375 -0.84375 L 6.59375 0 L 1.171875 0 L 1.171875 -7.765625 L 6.453125 -7.765625 Z M 6.453125 -6.90625 "/></g></g></g><g fill="#ff0000" fill-opacity="1"><g transform="translate(271.535899, 225.269839)"><g><path d="M 4.140625 0 L 3.21875 0 L 0.0625 -7.765625 L 1.015625 -7.765625 L 3.6875 -1.03125 L 6.375 -7.765625 L 7.3125 -7.765625 Z M 4.140625 0 "/></g></g></g><g fill="#ff0000" fill-opacity="1"><g transform="translate(278.915884, 225.269839)"><g><path d="M 6.453125 -6.90625 L 2.0625 -6.90625 L 2.0625 -4.359375 L 5.984375 -4.359375 L 5.984375 -3.5 L 2.0625 -3.5 L 2.0625 -0.84375 L 6.59375 -0.84375 L 6.59375 0 L 1.171875 0 L 1.171875 -7.765625 L 6.453125 -7.765625 Z M 6.453125 -6.90625 "/></g></g></g><g fill="#ff0000" fill-opacity="1"><g transform="translate(286.140504, 225.269839)"><g><path d="M 7.625 0 L 6.71875 0 L 2.0625 -6.234375 L 2.0625 0 L 1.171875 0 L 1.171875 -7.765625 L 2.09375 -7.765625 L 6.75 -1.515625 L 6.75 -7.765625 L 7.625 -7.765625 Z M 7.625 0 "/></g></g></g><g fill="#ff0000" fill-opacity="1"><g transform="translate(294.9632, 225.269839)"><g><path d="M 6.078125 -6.90625 L 3.53125 -6.90625 L 3.53125 0 L 2.65625 0 L 2.65625 -6.90625 L 0.125 -6.90625 L 0.125 -7.765625 L 6.078125 -7.765625 Z M 6.078125 -6.90625 "/></g></g></g><g fill="#ff0000" fill-opacity="1"><g transform="translate(301.155735, 225.269839)"><g><path d="M 3.484375 -7.796875 C 4.410156 -7.796875 5.234375 -7.554688 5.953125 -7.078125 L 5.5625 -6.25 C 4.914062 -6.6875 4.203125 -6.90625 3.421875 -6.90625 C 2.921875 -6.90625 2.519531 -6.8125 2.21875 -6.625 C 1.925781 -6.445312 1.78125 -6.195312 1.78125 -5.875 C 1.78125 -5.5625 1.882812 -5.300781 2.09375 -5.09375 C 2.3125 -4.882812 2.582031 -4.726562 2.90625 -4.625 C 3.226562 -4.53125 3.578125 -4.414062 3.953125 -4.28125 C 4.335938 -4.15625 4.6875 -4.019531 5 -3.875 C 5.320312 -3.738281 5.59375 -3.515625 5.8125 -3.203125 C 6.03125 -2.898438 6.140625 -2.53125 6.140625 -2.09375 C 6.140625 -1.445312 5.878906 -0.929688 5.359375 -0.546875 C 4.835938 -0.160156 4.160156 0.03125 3.328125 0.03125 C 2.773438 0.03125 2.234375 -0.0703125 1.703125 -0.28125 C 1.179688 -0.5 0.734375 -0.789062 0.359375 -1.15625 L 0.75 -1.953125 C 1.101562 -1.609375 1.507812 -1.335938 1.96875 -1.140625 C 2.4375 -0.953125 2.894531 -0.859375 3.34375 -0.859375 C 3.90625 -0.859375 4.347656 -0.960938 4.671875 -1.171875 C 4.992188 -1.390625 5.15625 -1.679688 5.15625 -2.046875 C 5.15625 -2.328125 5.078125 -2.5625 4.921875 -2.75 C 4.765625 -2.945312 4.554688 -3.097656 4.296875 -3.203125 C 4.046875 -3.304688 3.765625 -3.40625 3.453125 -3.5 C 3.140625 -3.59375 2.828125 -3.691406 2.515625 -3.796875 C 2.203125 -3.898438 1.914062 -4.03125 1.65625 -4.1875 C 1.40625 -4.34375 1.195312 -4.550781 1.03125 -4.8125 C 0.875 -5.082031 0.796875 -5.410156 0.796875 -5.796875 C 0.796875 -6.398438 1.039062 -6.882812 1.53125 -7.25 C 2.03125 -7.613281 2.679688 -7.796875 3.484375 -7.796875 Z M 3.484375 -7.796875 "/></g></g></g></svg>