<svg xmlns="http://www.w3.org/2000/svg" xmlns:xlink="http://www.w3.org/1999/xlink" width="500" zoomAndPan="magnify" viewBox="0 0 375 374.999991" height="500" preserveAspectRatio="xMidYMid meet" version="1.0"><defs><g/><clipPath id="22af4abd81"><path d="M 52 144 L 116 144 L 116 214 L 52 214 Z M 52 144 " clip-rule="nonzero"/></clipPath><clipPath id="08aeac314d"><path d="M 52.816406 144.707031 L 115.816406 144.6875 L 115.839844 213.6875 L 52.839844 213.707031 Z M 52.816406 144.707031 " clip-rule="nonzero"/></clipPath><clipPath id="5ec062b7e8"><path d="M 52.703125 144.707031 L 117.203125 144.6875 L 117.222656 213.6875 L 52.722656 213.707031 Z M 52.703125 144.707031 " clip-rule="nonzero"/></clipPath><clipPath id="64c32d8d00"><path d="M 49.691406 144.707031 L 118.691406 144.6875 L 118.710938 213.6875 L 49.710938 213.707031 Z M 49.691406 144.707031 " clip-rule="nonzero"/></clipPath></defs><g clip-path="url(#22af4abd81)"><g clip-path="url(#08aeac314d)"><g clip-path="url(#5ec062b7e8)"><g clip-path="url(#64c32d8d00)"><path fill="#ffffff" d="M 49.691406 144.707031 L 118.691406 144.6875 L 118.710938 213.6875 L 49.710938 213.707031 Z M 49.691406 144.707031 " fill-opacity="1" fill-rule="nonzero"/></g></g></g></g><g fill="#ff0000" fill-opacity="1"><g transform="translate(0.0000045, 215.023132)"><g><path d="M 55.71875 -86.40625 L 55.71875 -69.125 L 25.96875 -69.125 L 25.96875 -51.953125 L 54.46875 -51.953125 L 54.46875 -34.671875 L 25.96875 -34.671875 L 25.96875 -17.28125 L 55.71875 -17.28125 L 55.71875 0 L 6.28125 0 L 6.28125 -86.40625 Z M 55.71875 -86.40625 "/></g></g></g><g fill="#ff0000" fill-opacity="1"><g transform="translate(60.738932, 215.023132)"><g><path d="M 19.90625 -53.734375 L 32.984375 -24.515625 L 46.078125 -53.734375 L 68.078125 -53.734375 L 39.28125 0 L 26.703125 0 L -2.09375 -53.734375 Z M 19.90625 -53.734375 "/></g></g></g><g fill="#ff0000" fill-opacity="1"><g transform="translate(126.713982, 215.023132)"><g><path d="M 60.640625 -24.296875 L 21.6875 -24.296875 C 21.6875 -20.523438 22.90625 -17.734375 25.34375 -15.921875 C 27.789062 -14.109375 30.445312 -13.203125 33.3125 -13.203125 C 36.3125 -13.203125 38.679688 -13.601562 40.421875 -14.40625 C 42.171875 -15.207031 44.160156 -16.796875 46.390625 -19.171875 L 59.796875 -12.46875 C 54.210938 -3.101562 44.925781 1.578125 31.9375 1.578125 C 23.84375 1.578125 16.894531 -1.195312 11.09375 -6.75 C 5.300781 -12.300781 2.40625 -18.988281 2.40625 -26.8125 C 2.40625 -34.632812 5.300781 -41.335938 11.09375 -46.921875 C 16.894531 -52.503906 23.84375 -55.296875 31.9375 -55.296875 C 40.457031 -55.296875 47.390625 -52.832031 52.734375 -47.90625 C 58.078125 -42.988281 60.75 -35.957031 60.75 -26.8125 C 60.75 -25.550781 60.710938 -24.710938 60.640625 -24.296875 Z M 22.203125 -34.5625 L 42.625 -34.5625 C 42.207031 -37.351562 41.109375 -39.5 39.328125 -41 C 37.546875 -42.5 35.257812 -43.25 32.46875 -43.25 C 29.394531 -43.25 26.945312 -42.445312 25.125 -40.84375 C 23.3125 -39.238281 22.335938 -37.144531 22.203125 -34.5625 Z M 22.203125 -34.5625 "/></g></g></g><g fill="#ff0000" fill-opacity="1"><g transform="translate(189.861529, 215.023132)"><g><path d="M 6.28125 0 L 6.28125 -53.734375 L 24.828125 -53.734375 L 24.828125 -48.078125 L 25.03125 -48.078125 C 29.851562 -52.890625 34.984375 -55.296875 40.421875 -55.296875 C 43.078125 -55.296875 45.710938 -54.945312 48.328125 -54.25 C 50.953125 -53.550781 53.46875 -52.46875 55.875 -51 C 58.28125 -49.539062 60.234375 -47.460938 61.734375 -44.765625 C 63.242188 -42.078125 64 -38.957031 64 -35.40625 L 64 0 L 45.453125 0 L 45.453125 -30.375 C 45.453125 -33.164062 44.5625 -35.609375 42.78125 -37.703125 C 41 -39.796875 38.675781 -40.84375 35.8125 -40.84375 C 33.019531 -40.84375 30.488281 -39.757812 28.21875 -37.59375 C 25.957031 -35.4375 24.828125 -33.03125 24.828125 -30.375 L 24.828125 0 Z M 6.28125 0 "/></g></g></g><g fill="#ff0000" fill-opacity="1"><g transform="translate(259.082966, 215.023132)"><g><path d="M 9.421875 -53.734375 L 9.421875 -73.734375 L 27.96875 -73.734375 L 27.96875 -53.734375 L 39.28125 -53.734375 L 39.28125 -39.59375 L 27.96875 -39.59375 L 27.96875 -22.515625 C 27.96875 -17.554688 29.363281 -15.078125 32.15625 -15.078125 C 32.851562 -15.078125 33.582031 -15.21875 34.34375 -15.5 C 35.113281 -15.78125 35.710938 -16.0625 36.140625 -16.34375 L 36.765625 -16.75 L 41.375 -1.78125 C 37.394531 0.457031 32.851562 1.578125 27.75 1.578125 C 24.257812 1.578125 21.257812 0.96875 18.75 -0.25 C 16.238281 -1.476562 14.335938 -3.125 13.046875 -5.1875 C 11.753906 -7.25 10.828125 -9.410156 10.265625 -11.671875 C 9.703125 -13.941406 9.421875 -16.367188 9.421875 -18.953125 L 9.421875 -39.59375 L 1.671875 -39.59375 L 1.671875 -53.734375 Z M 9.421875 -53.734375 "/></g></g></g><g fill="#ff0000" fill-opacity="1"><g transform="translate(300.448275, 215.023132)"><g><path d="M 18.21875 -22.40625 C 21.570312 -22.40625 24.414062 -21.234375 26.75 -18.890625 C 29.09375 -16.554688 30.265625 -13.71875 30.265625 -10.375 C 30.265625 -7.09375 29.09375 -4.28125 26.75 -1.9375 C 24.414062 0.40625 21.570312 1.578125 18.21875 1.578125 C 14.9375 1.578125 12.125 0.40625 9.78125 -1.9375 C 7.445312 -4.28125 6.28125 -7.09375 6.28125 -10.375 C 6.28125 -13.71875 7.445312 -16.554688 9.78125 -18.890625 C 12.125 -21.234375 14.9375 -22.40625 18.21875 -22.40625 Z M 18.21875 -22.40625 "/></g></g></g><g fill="#ff0000" fill-opacity="1"><g transform="translate(163.297169, 239.11287)"><g><path d="M 7.546875 -8.578125 L 4.390625 -8.578125 L 4.390625 0 L 3.296875 0 L 3.296875 -8.578125 L 0.15625 -8.578125 L 0.15625 -9.640625 L 7.546875 -9.640625 Z M 7.546875 -8.578125 "/></g></g></g><g fill="#ff0000" fill-opacity="1"><g transform="translate(170.977641, 239.11287)"><g><path d="M 9.46875 0 L 8.375 0 L 8.375 -4.234375 L 2.5625 -4.234375 L 2.5625 0 L 1.453125 0 L 1.453125 -9.640625 L 2.5625 -9.640625 L 2.5625 -5.28125 L 8.375 -5.28125 L 8.375 -9.640625 L 9.46875 -9.640625 Z M 9.46875 0 "/></g></g></g><g fill="#ff0000" fill-opacity="1"><g transform="translate(181.90648, 239.11287)"><g><path d="M 8 -8.578125 L 2.5625 -8.578125 L 2.5625 -5.40625 L 7.421875 -5.40625 L 7.421875 -4.34375 L 2.5625 -4.34375 L 2.5625 -1.046875 L 8.171875 -1.046875 L 8.171875 0 L 1.453125 0 L 1.453125 -9.640625 L 8 -9.640625 Z M 8 -8.578125 "/></g></g></g><g fill="#ff0000" fill-opacity="1"><g transform="translate(190.867027, 239.11287)"><g/></g></g><g fill="#ff0000" fill-opacity="1"><g transform="translate(194.638437, 239.11287)"><g><path d="M 7.5625 -2.4375 L 2.296875 -2.4375 L 1.21875 0 L 0.0625 0 L 4.375 -9.640625 L 5.515625 -9.640625 L 9.828125 0 L 8.625 0 Z M 7.09375 -3.5 L 4.921875 -8.390625 L 2.765625 -3.5 Z M 7.09375 -3.5 "/></g></g></g><g fill="#ff0000" fill-opacity="1"><g transform="translate(204.521188, 239.11287)"><g><path d="M 1.453125 -9.640625 L 5.078125 -9.640625 C 6.273438 -9.640625 7.203125 -9.351562 7.859375 -8.78125 C 8.515625 -8.21875 8.84375 -7.425781 8.84375 -6.40625 C 8.84375 -5.332031 8.515625 -4.503906 7.859375 -3.921875 C 7.203125 -3.335938 6.273438 -3.046875 5.078125 -3.046875 L 2.5625 -3.046875 L 2.5625 0 L 1.453125 0 Z M 2.5625 -8.578125 L 2.5625 -4.109375 L 5.03125 -4.109375 C 5.914062 -4.109375 6.59375 -4.300781 7.0625 -4.6875 C 7.539062 -5.070312 7.78125 -5.632812 7.78125 -6.375 C 7.78125 -7.101562 7.539062 -7.648438 7.0625 -8.015625 C 6.59375 -8.390625 5.914062 -8.578125 5.03125 -8.578125 Z M 2.5625 -8.578125 "/></g></g></g><g fill="#ff0000" fill-opacity="1"><g transform="translate(213.729488, 239.11287)"><g><path d="M 1.453125 -9.640625 L 5.078125 -9.640625 C 6.273438 -9.640625 7.203125 -9.351562 7.859375 -8.78125 C 8.515625 -8.21875 8.84375 -7.425781 8.84375 -6.40625 C 8.84375 -5.332031 8.515625 -4.503906 7.859375 -3.921875 C 7.203125 -3.335938 6.273438 -3.046875 5.078125 -3.046875 L 2.5625 -3.046875 L 2.5625 0 L 1.453125 0 Z M 2.5625 -8.578125 L 2.5625 -4.109375 L 5.03125 -4.109375 C 5.914062 -4.109375 6.59375 -4.300781 7.0625 -4.6875 C 7.539062 -5.070312 7.78125 -5.632812 7.78125 -6.375 C 7.78125 -7.101562 7.539062 -7.648438 7.0625 -8.015625 C 6.59375 -8.390625 5.914062 -8.578125 5.03125 -8.578125 Z M 2.5625 -8.578125 "/></g></g></g><g fill="#ff0000" fill-opacity="1"><g transform="translate(222.937789, 239.11287)"><g><path d="M 2.5625 -1.046875 L 6.78125 -1.046875 L 6.78125 0 L 1.453125 0 L 1.453125 -9.640625 L 2.5625 -9.640625 Z M 2.5625 -1.046875 "/></g></g></g><g fill="#ff0000" fill-opacity="1"><g transform="translate(230.053927, 239.11287)"><g><path d="M 2.5625 0 L 1.453125 0 L 1.453125 -9.640625 L 2.5625 -9.640625 Z M 2.5625 0 "/></g></g></g><g fill="#ff0000" fill-opacity="1"><g transform="translate(234.073091, 239.11287)"><g><path d="M 5.578125 -9.65625 C 6.222656 -9.65625 6.851562 -9.53125 7.46875 -9.28125 C 8.082031 -9.039062 8.625 -8.703125 9.09375 -8.265625 L 8.4375 -7.421875 C 7.644531 -8.222656 6.695312 -8.625 5.59375 -8.625 C 4.5 -8.625 3.570312 -8.253906 2.8125 -7.515625 C 2.050781 -6.785156 1.671875 -5.890625 1.671875 -4.828125 C 1.671875 -3.773438 2.050781 -2.878906 2.8125 -2.140625 C 3.582031 -1.398438 4.507812 -1.03125 5.59375 -1.03125 C 6.675781 -1.03125 7.625 -1.414062 8.4375 -2.1875 L 9.109375 -1.4375 C 8.054688 -0.4375 6.863281 0.0625 5.53125 0.0625 C 4.144531 0.0625 2.96875 -0.410156 2 -1.359375 C 1.03125 -2.304688 0.546875 -3.460938 0.546875 -4.828125 C 0.546875 -6.179688 1.035156 -7.320312 2.015625 -8.25 C 2.992188 -9.1875 4.179688 -9.65625 5.578125 -9.65625 Z M 5.578125 -9.65625 "/></g></g></g><g fill="#ff0000" fill-opacity="1"><g transform="translate(243.708088, 239.11287)"><g><path d="M 7.5625 -2.4375 L 2.296875 -2.4375 L 1.21875 0 L 0.0625 0 L 4.375 -9.640625 L 5.515625 -9.640625 L 9.828125 0 L 8.625 0 Z M 7.09375 -3.5 L 4.921875 -8.390625 L 2.765625 -3.5 Z M 7.09375 -3.5 "/></g></g></g><g fill="#ff0000" fill-opacity="1"><g transform="translate(253.590838, 239.11287)"><g><path d="M 7.546875 -8.578125 L 4.390625 -8.578125 L 4.390625 0 L 3.296875 0 L 3.296875 -8.578125 L 0.15625 -8.578125 L 0.15625 -9.640625 L 7.546875 -9.640625 Z M 7.546875 -8.578125 "/></g></g></g><g fill="#ff0000" fill-opacity="1"><g transform="translate(261.271311, 239.11287)"><g><path d="M 2.5625 0 L 1.453125 0 L 1.453125 -9.640625 L 2.5625 -9.640625 Z M 2.5625 0 "/></g></g></g><g fill="#ff0000" fill-opacity="1"><g transform="translate(265.290475, 239.11287)"><g><path d="M 5.609375 -9.65625 C 7.003906 -9.65625 8.191406 -9.1875 9.171875 -8.25 C 10.148438 -7.320312 10.640625 -6.175781 10.640625 -4.8125 C 10.640625 -3.457031 10.148438 -2.304688 9.171875 -1.359375 C 8.191406 -0.410156 7.003906 0.0625 5.609375 0.0625 C 4.191406 0.0625 2.992188 -0.410156 2.015625 -1.359375 C 1.035156 -2.304688 0.546875 -3.457031 0.546875 -4.8125 C 0.546875 -6.175781 1.035156 -7.320312 2.015625 -8.25 C 2.992188 -9.1875 4.191406 -9.65625 5.609375 -9.65625 Z M 5.609375 -8.625 C 4.523438 -8.625 3.597656 -8.253906 2.828125 -7.515625 C 2.054688 -6.773438 1.671875 -5.875 1.671875 -4.8125 C 1.671875 -3.757812 2.054688 -2.859375 2.828125 -2.109375 C 3.597656 -1.367188 4.523438 -1 5.609375 -1 C 6.679688 -1 7.597656 -1.367188 8.359375 -2.109375 C 9.128906 -2.859375 9.515625 -3.757812 9.515625 -4.8125 C 9.515625 -5.875 9.128906 -6.773438 8.359375 -7.515625 C 7.597656 -8.253906 6.679688 -8.625 5.609375 -8.625 Z M 5.609375 -8.625 "/></g></g></g><g fill="#ff0000" fill-opacity="1"><g transform="translate(276.480836, 239.11287)"><g><path d="M 9.46875 0 L 8.34375 0 L 2.5625 -7.734375 L 2.5625 0 L 1.453125 0 L 1.453125 -9.640625 L 2.609375 -9.640625 L 8.390625 -1.890625 L 8.390625 -9.640625 L 9.46875 -9.640625 Z M 9.46875 0 "/></g></g></g><g fill="#ff0000" fill-opacity="1"><g transform="translate(287.423443, 239.11287)"><g/></g></g><g fill="#ff0000" fill-opacity="1"><g transform="translate(291.194853, 239.11287)"><g><path d="M 5.609375 -9.65625 C 7.003906 -9.65625 8.191406 -9.1875 9.171875 -8.25 C 10.148438 -7.320312 10.640625 -6.175781 10.640625 -4.8125 C 10.640625 -3.457031 10.148438 -2.304688 9.171875 -1.359375 C 8.191406 -0.410156 7.003906 0.0625 5.609375 0.0625 C 4.191406 0.0625 2.992188 -0.410156 2.015625 -1.359375 C 1.035156 -2.304688 0.546875 -3.457031 0.546875 -4.8125 C 0.546875 -6.175781 1.035156 -7.320312 2.015625 -8.25 C 2.992188 -9.1875 4.191406 -9.65625 5.609375 -9.65625 Z M 5.609375 -8.625 C 4.523438 -8.625 3.597656 -8.253906 2.828125 -7.515625 C 2.054688 -6.773438 1.671875 -5.875 1.671875 -4.8125 C 1.671875 -3.757812 2.054688 -2.859375 2.828125 -2.109375 C 3.597656 -1.367188 4.523438 -1 5.609375 -1 C 6.679688 -1 7.597656 -1.367188 8.359375 -2.109375 C 9.128906 -2.859375 9.515625 -3.757812 9.515625 -4.8125 C 9.515625 -5.875 9.128906 -6.773438 8.359375 -7.515625 C 7.597656 -8.253906 6.679688 -8.625 5.609375 -8.625 Z M 5.609375 -8.625 "/></g></g></g><g fill="#ff0000" fill-opacity="1"><g transform="translate(302.385214, 239.11287)"><g><path d="M 7.578125 -8.578125 L 2.5625 -8.578125 L 2.5625 -5.1875 L 7.0625 -5.1875 L 7.0625 -4.125 L 2.5625 -4.125 L 2.5625 0 L 1.453125 0 L 1.453125 -9.640625 L 7.578125 -9.640625 Z M 7.578125 -8.578125 "/></g></g></g><g fill="#ff0000" fill-opacity="1"><g transform="translate(310.134498, 239.11287)"><g/></g></g><g fill="#ff0000" fill-opacity="1"><g transform="translate(313.905908, 239.11287)"><g><path d="M 8 -8.578125 L 2.5625 -8.578125 L 2.5625 -5.40625 L 7.421875 -5.40625 L 7.421875 -4.34375 L 2.5625 -4.34375 L 2.5625 -1.046875 L 8.171875 -1.046875 L 8.171875 0 L 1.453125 0 L 1.453125 -9.640625 L 8 -9.640625 Z M 8 -8.578125 "/></g></g></g><g fill="#ff0000" fill-opacity="1"><g transform="translate(322.866455, 239.11287)"><g><path d="M 5.140625 0 L 3.984375 0 L 0.078125 -9.640625 L 1.265625 -9.640625 L 4.578125 -1.28125 L 7.921875 -9.640625 L 9.078125 -9.640625 Z M 5.140625 0 "/></g></g></g><g fill="#ff0000" fill-opacity="1"><g transform="translate(332.019697, 239.11287)"><g><path d="M 8 -8.578125 L 2.5625 -8.578125 L 2.5625 -5.40625 L 7.421875 -5.40625 L 7.421875 -4.34375 L 2.5625 -4.34375 L 2.5625 -1.046875 L 8.171875 -1.046875 L 8.171875 0 L 1.453125 0 L 1.453125 -9.640625 L 8 -9.640625 Z M 8 -8.578125 "/></g></g></g><g fill="#ff0000" fill-opacity="1"><g transform="translate(340.980244, 239.11287)"><g><path d="M 9.46875 0 L 8.34375 0 L 2.5625 -7.734375 L 2.5625 0 L 1.453125 0 L 1.453125 -9.640625 L 2.609375 -9.640625 L 8.390625 -1.890625 L 8.390625 -9.640625 L 9.46875 -9.640625 Z M 9.46875 0 "/></g></g></g><g fill="#ff0000" fill-opacity="1"><g transform="translate(351.922851, 239.11287)"><g><path d="M 7.546875 -8.578125 L 4.390625 -8.578125 L 4.390625 0 L 3.296875 0 L 3.296875 -8.578125 L 0.15625 -8.578125 L 0.15625 -9.640625 L 7.546875 -9.640625 Z M 7.546875 -8.578125 "/></g></g></g><g fill="#ff0000" fill-opacity="1"><g transform="translate(359.603323, 239.11287)"><g><path d="M 4.328125 -9.671875 C 5.472656 -9.671875 6.488281 -9.375 7.375 -8.78125 L 6.90625 -7.75 C 6.101562 -8.289062 5.21875 -8.5625 4.25 -8.5625 C 3.625 -8.5625 3.125 -8.445312 2.75 -8.21875 C 2.382812 -8 2.203125 -7.6875 2.203125 -7.28125 C 2.203125 -6.894531 2.332031 -6.570312 2.59375 -6.3125 C 2.863281 -6.0625 3.203125 -5.875 3.609375 -5.75 C 4.015625 -5.625 4.445312 -5.476562 4.90625 -5.3125 C 5.375 -5.15625 5.804688 -4.988281 6.203125 -4.8125 C 6.609375 -4.644531 6.941406 -4.367188 7.203125 -3.984375 C 7.472656 -3.597656 7.609375 -3.140625 7.609375 -2.609375 C 7.609375 -1.804688 7.285156 -1.160156 6.640625 -0.671875 C 6.003906 -0.191406 5.164062 0.046875 4.125 0.046875 C 3.4375 0.046875 2.765625 -0.0820312 2.109375 -0.34375 C 1.460938 -0.613281 0.90625 -0.976562 0.4375 -1.4375 L 0.9375 -2.421875 C 1.375 -1.992188 1.878906 -1.660156 2.453125 -1.421875 C 3.023438 -1.179688 3.585938 -1.0625 4.140625 -1.0625 C 4.835938 -1.0625 5.390625 -1.191406 5.796875 -1.453125 C 6.203125 -1.722656 6.40625 -2.085938 6.40625 -2.546875 C 6.40625 -2.890625 6.304688 -3.175781 6.109375 -3.40625 C 5.910156 -3.644531 5.648438 -3.832031 5.328125 -3.96875 C 5.015625 -4.101562 4.664062 -4.226562 4.28125 -4.34375 C 3.894531 -4.457031 3.507812 -4.582031 3.125 -4.71875 C 2.738281 -4.851562 2.382812 -5.015625 2.0625 -5.203125 C 1.738281 -5.390625 1.476562 -5.648438 1.28125 -5.984375 C 1.082031 -6.316406 0.984375 -6.71875 0.984375 -7.1875 C 0.984375 -7.9375 1.289062 -8.535156 1.90625 -8.984375 C 2.519531 -9.441406 3.328125 -9.671875 4.328125 -9.671875 Z M 4.328125 -9.671875 "/></g></g></g></svg>